<svg id="圖層_1" data-name="圖層 1" xmlns="http://www.w3.org/2000/svg" xmlns:xlink="http://www.w3.org/1999/xlink" viewBox="0 0 312.39 351.75"><defs><style>.cls-1{fill:url(#未命名漸層_62);}.cls-2{fill:url(#未命名漸層_73);}</style><linearGradient id="未命名漸層_62" x1="136.48" y1="13.02" x2="167.52" y2="66.78" gradientUnits="userSpaceOnUse"><stop offset="0" stop-color="#ef473a"/><stop offset="1" stop-color="#cb2d3e"/></linearGradient><linearGradient id="未命名漸層_73" x1="90.91" y1="78.85" x2="236.9" y2="331.72" gradientUnits="userSpaceOnUse"><stop offset="0" stop-color="#6fb1fc"/><stop offset="0.51" stop-color="#4364f7"/><stop offset="1" stop-color="#0052d4"/></linearGradient></defs><title>poseison-logo</title><path class="cls-1" d="M149,44.19l-.38.21,6.87-3.68a7.39,7.39,0,0,1,6.8-.11l7.22,3.58h0a14.27,14.27,0,0,1,3.75,1.43c5.52,2.54,11,5.15,17.07,8a9.42,9.42,0,0,0-.44-2.08C180.47,35.25,171,19,161.73,2.63c-2.32-4.13-3.16-2.89-4.92.23C150.34,14.3,143.66,25.64,137.09,37c-3,5.21-6,10.45-8.94,15.68a114.39,114.39,0,0,0,16.4-6.78C146.59,45,148.22,44.19,149,44.19Z" transform="translate(-4.03)"/><path class="cls-2" d="M296.85,126.23c-1.42-2.44-3.06-4.76-4.67-7.09-1.46-2.13-2.69-4.51-5.83-6.71,5.48,13.09,9.31,25.45,11.08,38.39,6.49,47.53-5.34,89.58-38.4,124.78C238,298,211.72,310.82,181.56,316c-.54.09-1.05.17-1.51.2-1.36.3-2.73.55-4.09.78a1.39,1.39,0,0,0,0-1,6,6,0,0,1-.36-2.39c.13-12.49,0-25-.16-37.48,0-3,.64-3.69,3.71-2.76,11.88,3.59,23.72,3.27,35.18-1.72,21.09-9.18,32.21-29.3,30.54-54.52-.83-12.62-4.74-24.48-8.68-36.31-5.3-15.93-7.82-32.32-9.08-49-.29-3.83,1-5.11,4.67-5,5.26.11,9.58,2.41,13.84,5.15l0,0a1.4,1.4,0,0,0,2.08-1.75Q234.09,103.3,220.43,76.4c-.22-.44-.38-.94-.61-1.41a1.39,1.39,0,0,0-2.56.24c-1.24,4-2.53,8-3.63,12-9.46,34.57-12.64,69.35-4,104.66,2.65,10.83,4.83,21.85,3.57,33.13-1.21,10.88-11.42,18.45-23.81,17.91-10.09-.43-15-6.25-15.38-18.35-1.93-57.45-3.84-105.89-5.75-163.33,0-.64,0-4.49,0-6.23a1.39,1.39,0,0,0-.7-1.2l-8.08-4.63a1.39,1.39,0,0,0-1.41,0l-7.77,4.63A1.37,1.37,0,0,0,149.6,55c0,1.37,0,3.91,0,4.69-1.9,58.44-3.82,109.88-5.71,168.32-.27,8.11-5.5,13.87-13.65,14.86-14.66,1.78-25.74-7.86-25.85-22.52,0-2.16.15-4.32.26-6.48.59-11.57,4.44-22.51,6.49-33.8,5.88-32.51,2.13-64.36-6.73-95.83-.83-3-1.25-6.11-2.58-9a1.39,1.39,0,0,0-2.46-.11C94,84.2,77,117.26,71,130.13A1.39,1.39,0,0,0,73,131.86l0,0c4.18-2.84,8.53-5.12,13.82-5.12,2.62,0,3.6.94,3.41,3.53-1.13,15-2.4,29.89-7.26,44.24-5.86,17.26-10.8,34.69-9.7,53.22,2,33.79,33,55.58,65.31,45.78,3.43-1,3.93-.31,3.87,2.87-.18,10-.12,20-.19,30,0,4.57,0,7.34-.77,8.86a1.43,1.43,0,0,0-.13.49l-.19-.05c-1.65.42-4.41-.22-9.09-1.28A140.83,140.83,0,0,1,22.62,187.17a154.78,154.78,0,0,1,9.6-66.71c1-2.72,2.47-5.42,2.24-8.67-.72.23-1.15.23-1.3.43-1.15,1.61-2.24,3.26-3.35,4.9-25.08,36.95-32,77.32-20.16,120.1,21.54,77.87,97.34,125.7,177,112.28,60.36-10.17,112.84-56.91,126-117.2C320.74,194.91,316,159.51,296.85,126.23Z" transform="translate(-4.03)"/></svg>